# xmcd
#
# Track frame offsets:
#	150
#	11977
#	27522
#	40368
#	55908
#	70006
#	86067
#	99365
#	111081
#	124141
#	138254
#	151188
#
# Disc length: 2245 seconds
#
# Revision: 0
# Processed by: cddbd v1.5.1PL2 Copyright (c) Steve Scherf et al.
# Submitted via: EasyCDDAExtractor 9.1.0.1
#
DISCID=9d08c30c
DTITLE=Various Artist - Hillcrest 30
DYEAR=2006
DGENRE=Country
TTITLE0=Paul Dow - Dancing Gor My Heart
TTITLE1=Judy Harrison - Up Against You
TTITLE2=Kevin Carson - Startin Over
TTITLE3=Slow Horses - Two Hearts
TTITLE4=Murray Williams - Thenk A Farmer
TTITLE5=Didi Perry - Nashville Tennessee
TTITLE6=Marcus Tribble - I Could Love You With My Eye Closed
TTITLE7=Ann Pascoe - A Faster Train
TTITLE8=Jo-El Curtis - I Want To Be Around
TTITLE9=Shelby Downing - Nothing Else To Do
TTITLE10=Jason Whited - Honky Tonkin
TTITLE11=Sherry Lynn - Wrong Train
EXTD=
EXTT0=
EXTT1=
EXTT2=
EXTT3=
EXTT4=
EXTT5=
EXTT6=
EXTT7=
EXTT8=
EXTT9=
EXTT10=
EXTT11=
PLAYORDER=
